<?xml version="1.0" encoding="UTF-8" standalone="no"?>
<!-- Created with Inkscape (http://www.inkscape.org/) -->

<svg
   xmlns:dc="http://purl.org/dc/elements/1.1/"
   xmlns:cc="http://creativecommons.org/ns#"
   xmlns:rdf="http://www.w3.org/1999/02/22-rdf-syntax-ns#"
   xmlns:svg="http://www.w3.org/2000/svg"
   xmlns="http://www.w3.org/2000/svg"
   xmlns:sodipodi="http://sodipodi.sourceforge.net/DTD/sodipodi-0.dtd"
   xmlns:inkscape="http://www.inkscape.org/namespaces/inkscape"
   width="139.09982mm"
   height="89.62104mm"
   viewBox="0 0 492.87339 317.55486"
   id="svg3748"
   version="1.1"
   inkscape:version="0.91 r13725"
   sodipodi:docname="logo.svg">
  <defs
     id="defs3750">
    <clipPath
       clipPathUnits="userSpaceOnUse"
       id="clipPath3354">
      <path
         d="m 0,425.2 595.28,0 L 595.28,0 0,0 0,425.2 Z"
         id="path3356"
         inkscape:connector-curvature="0" />
    </clipPath>
  </defs>
  <sodipodi:namedview
     id="base"
     pagecolor="#ffffff"
     bordercolor="#666666"
     borderopacity="1.0"
     inkscape:pageopacity="0.0"
     inkscape:pageshadow="2"
     inkscape:zoom="1.8667619"
     inkscape:cx="220.43149"
     inkscape:cy="-91.732898"
     inkscape:document-units="px"
     inkscape:current-layer="g3352"
     showgrid="false"
     fit-margin-top="0"
     fit-margin-left="0"
     fit-margin-right="0"
     fit-margin-bottom="0"
     inkscape:window-width="1440"
     inkscape:window-height="837"
     inkscape:window-x="-8"
     inkscape:window-y="-8"
     inkscape:window-maximized="1" />
  <metadata
     id="metadata3753">
    <rdf:RDF>
      <cc:Work
         rdf:about="">
        <dc:format>image/svg+xml</dc:format>
        <dc:type
           rdf:resource="http://purl.org/dc/dcmitype/StillImage" />
        <dc:title></dc:title>
      </cc:Work>
    </rdf:RDF>
  </metadata>
  <g
     inkscape:label="Livello 1"
     inkscape:groupmode="layer"
     id="layer1"
     transform="translate(-110.70772,-274.40839)">
    <g
       transform="matrix(1.25,0,0,-1.25,-14.907286,726.68376)"
       clip-path="url(#clipPath3354)"
       id="g3352">
      <g
         transform="translate(121.5234,141.7256)"
         id="g3358">
        <path
           inkscape:connector-curvature="0"
           id="path3360"
           style="fill:#80cc28;fill-opacity:1;fill-rule:nonzero;stroke:none"
           d="m 0,0 c 2.021,-0.854 4.083,-1.596 6.153,-2.309 2.074,-0.707 4.16,-1.368 6.258,-1.995 4.195,-1.251 8.43,-2.36 12.687,-3.363 8.516,-2.001 17.125,-3.569 25.776,-4.798 17.302,-2.451 34.763,-3.547 52.197,-3.592 17.439,-0.041 34.859,0.981 52.166,2.885 17.307,1.903 34.502,4.695 51.533,8.233 l 1.79,-9.782 c -17.467,-2.775 -35.05,-4.782 -52.684,-5.883 -17.633,-1.099 -35.315,-1.298 -52.934,-0.423 -17.618,0.879 -35.18,2.818 -52.478,6.109 -8.646,1.648 -17.226,3.636 -25.68,6.048 -4.226,1.209 -8.42,2.523 -12.566,3.975 C 10.146,-4.167 8.088,-3.406 6.045,-2.6 4.008,-1.789 1.977,-0.949 0,0" />
      </g>
      <g
         transform="translate(317.5801,107.7764)"
         id="g3362">
        <path
           inkscape:connector-curvature="0"
           id="path3364"
           style="fill:#80cc28;fill-opacity:1;fill-rule:nonzero;stroke:none"
           d="M 0,0 4.57,22.839 -8.696,41.984 45.415,31.298 0,0 Z" />
      </g>
      <g
         transform="translate(440.4541,309.2646)"
         id="g3366">
        <path
           inkscape:connector-curvature="0"
           id="path3368"
           style="fill:#5e2590;fill-opacity:1;fill-rule:nonzero;stroke:none"
           d="m 0,0 c -1.928,1.044 -3.908,1.979 -5.902,2.887 -1.996,0.902 -4.011,1.76 -6.037,2.585 -4.058,1.646 -8.166,3.158 -12.311,4.562 -8.283,2.808 -16.704,5.193 -25.194,7.243 -16.99,4.097 -34.266,6.857 -51.617,8.571 -17.354,1.71 -34.793,2.359 -52.202,2.12 -17.409,-0.239 -34.796,-1.373 -52.084,-3.264 l -0.847,9.907 c 17.652,1.091 35.347,1.408 53.006,0.815 17.657,-0.592 35.277,-2.085 52.732,-4.643 17.452,-2.56 34.747,-6.172 51.651,-11.103 8.451,-2.468 16.8,-5.268 24.984,-8.479 4.092,-1.606 8.14,-3.316 12.128,-5.159 C -9.7,5.12 -7.722,4.165 -5.768,3.167 -3.815,2.164 -1.876,1.135 0,0" />
      </g>
      <g
         transform="translate(248.5459,361.8203)"
         id="g3370">
        <path
           inkscape:connector-curvature="0"
           id="path3372"
           style="fill:#5e2590;fill-opacity:1;fill-rule:nonzero;stroke:none"
           d="M 0,0 -6.733,-22.298 4.64,-42.623 -48.199,-26.809 0,0 Z" />
      </g>
      <g
         transform="translate(115.0283,196.915)"
         id="g3374">
        <path
           inkscape:connector-curvature="0"
           id="path3376"
           style="fill:#8acf25;fill-opacity:1;fill-rule:nonzero;stroke:none"
           d="m 0,0 c 0.01,-1.963 0.385,-3.744 1.129,-5.332 0.742,-1.594 1.728,-3.003 2.964,-4.223 2.708,-2.688 5.908,-4.025 9.591,-4.008 3.799,0.018 7.047,1.38 9.736,4.091 2.568,2.591 3.841,5.784 3.824,9.589 l -0.13,30.373 c -0.016,3.804 -1.318,6.99 -3.908,9.558 -1.354,1.219 -2.833,2.197 -4.429,2.925 -1.6,0.729 -3.384,1.09 -5.343,1.082 L -0.188,43.996 0,0 Z m 13.373,58.229 c 1.96,0.007 3.74,0.385 5.333,1.128 1.59,0.743 3.059,1.731 4.405,2.965 2.566,2.831 3.84,6.028 3.825,9.587 L 26.88,84.611 c -0.014,3.559 -1.317,6.743 -3.905,9.556 -1.358,1.219 -2.836,2.196 -4.432,2.926 -1.6,0.729 -3.382,1.092 -5.342,1.084 C 11.36,98.167 9.641,97.792 8.049,97.048 6.457,96.306 4.99,95.314 3.646,94.083 2.421,92.727 1.445,91.25 0.721,89.651 -0.011,88.055 -0.372,86.335 -0.362,84.493 l 0.111,-26.323 13.624,0.059 z m 0.372,-86.15 c -3.806,-0.017 -7.431,0.705 -10.87,2.161 -3.444,1.459 -6.401,3.47 -8.862,6.037 -2.468,2.445 -4.443,5.349 -5.931,8.719 -1.486,3.369 -2.237,7.017 -2.253,10.943 l -0.365,84.495 c -0.017,3.801 0.703,7.425 2.161,10.87 1.456,3.44 3.404,6.393 5.854,8.859 2.44,2.465 5.379,4.443 8.809,5.93 3.428,1.487 7.044,2.239 10.851,2.257 3.926,0.017 7.58,-0.705 10.961,-2.162 3.382,-1.458 6.369,-3.412 8.954,-5.854 2.465,-2.444 4.444,-5.382 5.93,-8.809 1.486,-3.432 2.24,-7.049 2.255,-10.852 l 0.055,-12.701 c 0.018,-3.806 -0.704,-7.431 -2.163,-10.87 -1.455,-3.446 -3.41,-6.399 -5.854,-8.863 -0.488,-0.492 -0.851,-0.802 -1.099,-0.926 l 1.109,-1.097 c 2.465,-2.446 4.443,-5.385 5.929,-8.812 1.487,-3.43 2.24,-7.05 2.256,-10.852 L 41.604,0.18 c 0.017,-3.928 -0.707,-7.582 -2.162,-10.962 -1.457,-3.382 -3.411,-6.306 -5.854,-8.771 -2.564,-2.588 -5.531,-4.625 -8.901,-6.113 -3.37,-1.485 -7.017,-2.237 -10.942,-2.255" />
      </g>
      <g
         transform="translate(185.8613,248.7656)"
         id="g3378">
        <path
           inkscape:connector-curvature="0"
           id="path3380"
           style="fill:#8acf25;fill-opacity:1;fill-rule:nonzero;stroke:none"
           d="m 0,0 c -2.688,-2.713 -4.027,-5.973 -4.009,-9.775 l 0.092,-21.17 c 0.734,0.125 1.501,0.22 2.301,0.287 0.795,0.064 1.563,0.22 2.299,0.47 2.083,0.377 4.074,0.846 5.976,1.408 1.899,0.558 3.705,1.272 5.421,2.139 1.103,0.617 2.141,1.267 3.123,1.947 0.974,0.675 1.835,1.387 2.566,2.128 2.202,1.97 3.723,4.373 4.572,7.199 0.604,1.844 0.904,3.746 0.896,5.71 -0.014,3.802 -1.383,7.05 -4.093,9.739 C 16.556,2.647 13.357,3.923 9.554,3.907 5.75,3.891 2.565,2.588 0,0 m -9.829,-68.522 c -2.588,2.568 -4.626,5.531 -6.113,8.9 -1.49,3.369 -2.24,7.018 -2.256,10.943 l -0.165,38.842 c -0.019,3.927 0.701,7.58 2.158,10.963 1.458,3.381 3.472,6.366 6.036,8.954 2.444,2.465 5.348,4.441 8.717,5.928 3.37,1.488 7.015,2.239 10.944,2.256 3.929,0.016 7.581,-0.702 10.962,-2.16 3.381,-1.458 6.304,-3.411 8.77,-5.854 2.464,-2.566 4.471,-5.536 6.021,-8.903 1.55,-3.37 2.333,-7.016 2.349,-10.943 0.028,-6.013 -1.362,-11.358 -4.164,-16.032 -2.559,-4.553 -5.917,-8.126 -10.078,-10.722 -2.57,-1.85 -5.326,-3.334 -8.266,-4.452 -1.836,-0.87 -3.707,-1.554 -5.605,-2.05 -1.902,-0.499 -3.833,-0.934 -5.794,-1.315 -2.577,-0.502 -5.09,-0.879 -7.544,-1.136 l 0.015,-3.313 c 0.018,-3.805 1.379,-7.052 4.093,-9.738 2.587,-2.567 5.784,-3.842 9.588,-3.827 l 15.462,0.069 7.182,0.031 0.063,-14.359 -22.643,-0.098 c -3.93,-0.018 -7.583,0.705 -10.965,2.161 -3.382,1.46 -6.302,3.408 -8.767,5.855" />
      </g>
      <g
         transform="translate(291.998,267.0791)"
         id="g3382">
        <path
           inkscape:connector-curvature="0"
           id="path3384"
           style="fill:#5e2590;fill-opacity:1;fill-rule:nonzero;stroke:none"
           d="m 0,0 0.407,-94.434 -14.358,-0.062 -0.303,70.135 c -3.917,-2.473 -8.391,-3.718 -13.421,-3.739 l -13.623,-0.059 0.287,-66.454 -14.359,-0.064 -0.58,134.568 14.359,0.061 0.23,-53.753 2.395,0.01 11.229,0.049 c 3.683,0.016 6.867,1.379 9.552,4.092 2.57,2.587 3.844,5.783 3.827,9.587 L -14.531,40.069 -0.173,40.13 -0.03,7.18 0,0 Z" />
      </g>
      <g
         transform="translate(341.9102,218.5107)"
         id="g3386">
        <path
           inkscape:connector-curvature="0"
           id="path3388"
           style="fill:#5e2590;fill-opacity:1;fill-rule:nonzero;stroke:none"
           d="m 0,0 c -3.803,-0.753 -7.537,-1.996 -11.21,-3.728 -2.331,-1.24 -4.288,-2.536 -5.878,-3.892 -0.979,-0.989 -1.862,-2.098 -2.654,-3.325 -0.795,-1.233 -1.371,-2.523 -1.732,-3.873 -0.607,-1.844 -0.904,-3.811 -0.897,-5.897 0.017,-3.929 1.382,-7.11 4.094,-9.553 2.466,-2.691 5.659,-4.024 9.59,-4.008 3.924,0.014 7.11,1.377 9.554,4.088 2.688,2.467 4.027,5.664 4.009,9.59 L 4.782,0.757 C 4.048,0.631 3.282,0.536 2.483,0.471 1.683,0.404 0.859,0.249 0,0 m -8.626,-48.637 c -3.93,-0.016 -7.581,0.705 -10.964,2.164 -3.382,1.458 -6.303,3.469 -8.767,6.036 -2.588,2.443 -4.625,5.347 -6.118,8.717 -1.481,3.369 -2.236,7.017 -2.253,10.944 -0.024,6.01 1.302,11.357 3.981,16.035 1.34,2.333 2.865,4.396 4.576,6.185 1.71,1.784 3.545,3.358 5.503,4.718 1.344,0.988 2.72,1.82 4.129,2.503 1.409,0.68 2.785,1.328 4.134,1.949 3.796,1.49 7.659,2.613 11.586,3.365 2.57,0.5 5.087,0.879 7.542,1.136 L 4.706,18.43 c -0.018,3.924 -1.38,7.109 -4.092,9.555 -2.466,2.687 -5.663,4.025 -9.587,4.008 l -18.962,-0.083 -0.059,14.36 18.958,0.082 c 3.926,0.016 7.58,-0.737 10.964,-2.255 3.382,-1.521 6.304,-3.502 8.77,-5.945 2.588,-2.444 4.625,-5.349 6.111,-8.717 1.485,-3.372 2.237,-7.018 2.256,-10.944 l 0.17,-39.028 c 0.016,-3.928 -0.706,-7.58 -2.161,-10.959 -1.462,-3.385 -3.472,-6.306 -6.039,-8.77 -2.445,-2.468 -5.352,-4.476 -8.717,-6.021 -3.374,-1.547 -7.018,-2.332 -10.944,-2.35" />
      </g>
      <g
         transform="translate(372.2939,172.9873)"
         id="g3390">
        <path
           inkscape:connector-curvature="0"
           id="path3392"
           style="fill:#5e2590;fill-opacity:1;fill-rule:nonzero;stroke:none"
           d="m 0,0 -0.396,91.857 14.177,0.063 0.336,-77.315 c 0.853,0.125 1.652,0.218 2.387,0.288 0.738,0.063 1.53,0.217 2.392,0.468 4.167,0.756 7.908,1.995 11.213,3.729 2.327,1.24 4.284,2.532 5.877,3.894 2.201,1.97 3.722,4.37 4.569,7.198 0.482,1.474 0.722,3.437 0.711,5.894 l -0.211,48.783 -0.031,7.179 14.359,0.061 0.243,-55.96 C 55.652,30.125 54.322,24.779 51.641,20.107 50.301,17.766 48.777,15.703 47.068,13.918 45.355,12.131 43.519,10.558 41.566,9.201 38.996,7.351 36.242,5.864 33.3,4.75 29.502,3.259 25.702,2.135 21.902,1.385 19.447,0.884 17.029,0.535 14.635,0.343 12.24,0.146 10.001,0.045 7.918,0.035 L 0,0 Z" />
      </g>
      <g
         transform="translate(457.1934,249.9355)"
         id="g3394">
        <path
           inkscape:connector-curvature="0"
           id="path3396"
           style="fill:#5e2590;fill-opacity:1;fill-rule:nonzero;stroke:none"
           d="m 0,0 c -2.688,-2.713 -4.021,-5.974 -4.009,-9.775 l 0.096,-21.17 c 0.733,0.124 1.497,0.22 2.299,0.287 0.792,0.064 1.562,0.22 2.298,0.47 2.085,0.376 4.074,0.846 5.976,1.407 1.898,0.559 3.702,1.272 5.424,2.139 1.099,0.619 2.14,1.268 3.119,1.947 0.977,0.677 1.835,1.387 2.566,2.129 2.203,1.969 3.728,4.371 4.573,7.199 0.602,1.843 0.901,3.745 0.894,5.709 -0.015,3.802 -1.38,7.051 -4.088,9.74 C 16.559,2.646 13.361,3.923 9.555,3.906 5.751,3.891 2.564,2.587 0,0 m -9.829,-68.524 c -2.588,2.568 -4.625,5.533 -6.113,8.902 -1.489,3.369 -2.24,7.018 -2.257,10.943 l -0.165,38.842 c -0.018,3.926 0.702,7.579 2.161,10.963 1.458,3.379 3.471,6.365 6.037,8.955 2.444,2.464 5.346,4.44 8.717,5.929 3.369,1.485 7.014,2.235 10.943,2.253 3.929,0.017 7.583,-0.7 10.96,-2.16 3.385,-1.457 6.304,-3.41 8.772,-5.853 2.465,-2.565 4.47,-5.535 6.022,-8.902 1.545,-3.371 2.331,-7.017 2.349,-10.945 0.025,-6.013 -1.366,-11.358 -4.164,-16.033 -2.56,-4.552 -5.92,-8.126 -10.083,-10.719 -2.567,-1.852 -5.322,-3.337 -8.263,-4.453 -1.836,-0.869 -3.706,-1.553 -5.604,-2.049 -1.907,-0.5 -3.835,-0.937 -5.795,-1.316 -2.574,-0.501 -5.087,-0.879 -7.542,-1.135 l 0.013,-3.314 c 0.017,-3.805 1.382,-7.053 4.092,-9.737 2.59,-2.567 5.787,-3.844 9.591,-3.828 l 15.464,0.069 7.177,0.03 0.062,-14.357 -22.644,-0.099 c -3.928,-0.018 -7.579,0.704 -10.961,2.162 -3.382,1.459 -6.305,3.408 -8.769,5.852" />
      </g>
    </g>
  </g>
</svg>
